<?xml version="1.0" standalone="no"?>
<!DOCTYPE svg PUBLIC "-//W3C//DTD SVG 20010904//EN"
 "http://www.w3.org/TR/2001/REC-SVG-20010904/DTD/svg10.dtd">
<svg version="1.0" xmlns="http://www.w3.org/2000/svg"
 width="256.000000pt" height="226.000000pt" viewBox="0 0 256.000000 226.000000"
 preserveAspectRatio="xMidYMid meet">

<g transform="translate(0.000000,226.000000) scale(0.100000,-0.100000)"
fill="#000000" stroke="none">
<path d="M815 2141 c-4 -42 -20 -197 -36 -346 -38 -342 -48 -442 -49 -482 0
-35 -1 -34 130 -143 68 -56 115 -95 193 -161 l28 -24 -51 -125 c-28 -69 -64
-163 -80 -210 -15 -47 -52 -146 -80 -220 -116 -300 -151 -393 -147 -397 5 -5
1289 -4 1294 1 2 2 -3 19 -11 37 -8 19 -31 77 -50 129 -19 52 -64 171 -100
263 -36 93 -70 183 -75 200 -5 18 -32 92 -60 165 -28 74 -51 139 -51 147 0 14
78 85 225 202 147 117 138 101 120 220 -8 55 -21 163 -29 239 -8 77 -20 185
-27 241 -12 101 -12 101 -35 92 -17 -6 -24 -5 -24 4 0 8 -4 7 -10 -3 -5 -8
-10 -10 -10 -4 0 6 -6 11 -12 12 -46 3 -83 13 -89 23 -12 20 -52 -2 -101 -55
-26 -28 -48 -54 -48 -58 0 -5 -116 -8 -258 -8 -245 0 -259 1 -268 19 -8 18
-67 85 -221 252 l-62 67 -6 -77z m955 -423 c55 -29 100 -55 100 -59 0 -3 -19
-12 -42 -18 -24 -7 -96 -37 -160 -67 -64 -30 -122 -54 -128 -54 -7 0 -4 11 7
28 10 15 41 71 68 124 28 54 51 98 52 98 2 0 48 -24 103 -52z m-638 -73 c31
-61 57 -115 57 -120 1 -6 -69 23 -154 64 -85 42 -155 78 -155 81 0 9 173 91
185 87 5 -1 36 -52 67 -112z m278 -258 c0 -7 16 -39 35 -72 20 -32 33 -60 30
-63 -2 -3 -19 6 -37 20 -66 50 -75 52 -112 23 -34 -26 -56 -32 -56 -16 0 6 17
35 38 65 32 48 41 55 70 56 20 0 32 -5 32 -13z"/>
</g>
</svg>
