<?xml version="1.0" standalone="no"?>
<!DOCTYPE svg PUBLIC "-//W3C//DTD SVG 20010904//EN"
 "http://www.w3.org/TR/2001/REC-SVG-20010904/DTD/svg10.dtd">
<svg version="1.0" xmlns="http://www.w3.org/2000/svg"
 width="16.000000pt" height="14.000000pt" viewBox="0 0 16.000000 14.000000"
 preserveAspectRatio="xMidYMid meet">

<g transform="translate(0.000000,14.000000) scale(0.100000,-0.100000)"
fill="#000000" stroke="none">
<path d="M50 101 c0 -16 4 -32 10 -36 6 -4 6 -15 0 -31 -14 -35 -14 -34 25
-34 36 0 43 12 26 39 -6 9 -5 21 2 33 10 15 9 21 -3 28 -12 8 -12 10 -1 10 8
0 12 2 9 5 -3 3 -17 1 -32 -5 -15 -5 -25 -6 -21 -1 3 5 1 12 -5 16 -6 4 -10
-6 -10 -24z"/>
</g>
</svg>
